<svg width="100" height="100" viewBox="0 0 100 100" xmlns="http://www.w3.org/2000/svg">
    <defs>
        <linearGradient id="bellGradient" x1="0%" y1="0%" x2="100%" y2="100%">
            <stop offset="0%" style="stop-color:#7A5C00;stop-opacity:1" />
            <stop offset="100%" style="stop-color:#A67C00;stop-opacity:1" />
        </linearGradient>
        <linearGradient id="checkGradient" x1="0%" y1="0%" x2="100%" y2="100%">
            <stop offset="0%" style="stop-color:#4ADE80;stop-opacity:1" />
            <stop offset="100%" style="stop-color:#22C55E;stop-opacity:1" />
        </linearGradient>
    </defs>
    <path d="M50 10 C32 10 20 26 20 42 L20 56 C20 60 17 64 14 66 L14 70 L86 70 L86 66 C83 64 80 60 80 56 L80 42 C80 26 68 10 50 10 Z" fill="url(#bellGradient)" stroke="#7A5C00" stroke-width="1"/>
    <ellipse cx="50" cy="76" rx="10" ry="5" fill="url(#bellGradient)" stroke="#7A5C00" stroke-width="0.5"/>
    <circle cx="50" cy="28" r="3.5" fill="#FFFFFF" opacity="0.7"/>
    <circle cx="36" cy="42" r="3" fill="#FFFFFF" opacity="0.6"/>
    <circle cx="64" cy="42" r="3" fill="#FFFFFF" opacity="0.6"/>
    <circle cx="42" cy="56" r="2.5" fill="#FFFFFF" opacity="0.5"/>
    <circle cx="58" cy="56" r="2.5" fill="#FFFFFF" opacity="0.5"/>
    <line x1="50" y1="28" x2="36" y2="42" stroke="#FFFFFF" stroke-width="1.5" opacity="0.35"/>
    <line x1="50" y1="28" x2="64" y2="42" stroke="#FFFFFF" stroke-width="1.5" opacity="0.35"/>
    <line x1="36" y1="42" x2="42" y2="56" stroke="#FFFFFF" stroke-width="1.5" opacity="0.35"/>
    <line x1="64" y1="42" x2="58" y2="56" stroke="#FFFFFF" stroke-width="1.5" opacity="0.35"/>
    <line x1="36" y1="42" x2="58" y2="56" stroke="#FFFFFF" stroke-width="1.2" opacity="0.25"/>
    <line x1="64" y1="42" x2="42" y2="56" stroke="#FFFFFF" stroke-width="1.2" opacity="0.25"/>
    <path d="M28 48 L42 62 L72 30" fill="none" stroke="url(#checkGradient)" stroke-width="5" stroke-linecap="round" stroke-linejoin="round" opacity="0.95"/>
</svg>
