<svg width="400" height="100" viewBox="0 0 400 100" xmlns="http://www.w3.org/2000/svg">
    <defs>
        <linearGradient id="bellGradient" x1="0%" y1="0%" x2="100%" y2="100%">
            <stop offset="0%" style="stop-color:#7A5C00;stop-opacity:1" />
            <stop offset="100%" style="stop-color:#A67C00;stop-opacity:1" />
        </linearGradient>
        <linearGradient id="checkGradient" x1="0%" y1="0%" x2="100%" y2="100%">
            <stop offset="0%" style="stop-color:#4ADE80;stop-opacity:1" />
            <stop offset="100%" style="stop-color:#22C55E;stop-opacity:1" />
        </linearGradient>
    </defs>
    <g transform="translate(10, 10)">
        <path d="M40 8 C26 8 16 21 16 34 L16 45 C16 48 14 51 11 53 L11 56 L69 56 L69 53 C66 51 64 48 64 45 L64 34 C64 21 54 8 40 8 Z" fill="url(#bellGradient)" stroke="#7A5C00" stroke-width="0.8"/>
        <ellipse cx="40" cy="61" rx="8" ry="4" fill="url(#bellGradient)" stroke="#7A5C00" stroke-width="0.4"/>
        <circle cx="40" cy="22" r="2.8" fill="#FFFFFF" opacity="0.7"/>
        <circle cx="29" cy="34" r="2.4" fill="#FFFFFF" opacity="0.6"/>
        <circle cx="51" cy="34" r="2.4" fill="#FFFFFF" opacity="0.6"/>
        <circle cx="34" cy="45" r="2" fill="#FFFFFF" opacity="0.5"/>
        <circle cx="46" cy="45" r="2" fill="#FFFFFF" opacity="0.5"/>
        <line x1="40" y1="22" x2="29" y2="34" stroke="#FFFFFF" stroke-width="1.2" opacity="0.35"/>
        <line x1="40" y1="22" x2="51" y2="34" stroke="#FFFFFF" stroke-width="1.2" opacity="0.35"/>
        <line x1="29" y1="34" x2="34" y2="45" stroke="#FFFFFF" stroke-width="1.2" opacity="0.35"/>
        <line x1="51" y1="34" x2="46" y2="45" stroke="#FFFFFF" stroke-width="1.2" opacity="0.35"/>
        <line x1="29" y1="34" x2="46" y2="45" stroke="#FFFFFF" stroke-width="1" opacity="0.25"/>
        <line x1="51" y1="34" x2="34" y2="45" stroke="#FFFFFF" stroke-width="1" opacity="0.25"/>
        <path d="M22 38 L34 50 L58 24" fill="none" stroke="url(#checkGradient)" stroke-width="4" stroke-linecap="round" stroke-linejoin="round" opacity="0.95"/>
    </g>
    <text x="100" y="55" font-family="Inter, sans-serif" font-size="42" font-weight="700" fill="#1C1C1E">BeLLMark</text>
</svg>
